<!-- Generated by IcoMoon.io -->
<svg version="1.1" xmlns="http://www.w3.org/2000/svg" width="102" height="32" viewBox="0 0 102 32">
<path d="M19.518 7.623l0.018 0.015 0.951 0.791 0.001 14.659c-3.36 2.774-6.741 5.523-10.142 8.246-0.216-0.022-5.818-4.629-8.663-6.969l-0.079-0.065c-0.729-0.6-1.265-1.041-1.464-1.201l-0.010-14.661 10.131-8.301c0.33 0.047 6.655 5.318 9.257 7.487zM15.143 10.618l-0.011-0.018-0.002-0.003-0.016-0.025c-1.665-2.694-4.582-7.413-4.831-7.592l-5.879 9.367 0.013 6.502 1.182 1.94c0.518 0.074 1.040 0.158 1.563 0.243 1.062 0.172 2.132 0.344 3.187 0.432l1.407-0.211c1.086-0.164 2.173-0.329 3.262-0.474l1.186-1.842-0.001-6.608c-0.141-0.222-0.537-0.861-1.060-1.709zM16.643 13.114c-0.040 1.199-0.030 2.405-0.020 3.608 0.004 0.489 0.008 0.978 0.009 1.467l0.626-1.015c0.181-0.288 0.361-0.577 0.54-0.866l0.205-0.333 0.197-0.322c-0.049-0.082-0.098-0.165-0.147-0.25-0.099-0.17-0.197-0.346-0.296-0.523-0.344-0.614-0.7-1.248-1.113-1.766zM11.953 1.967c-0.486-0.427-1.083-0.951-1.44-1.103l0.011 0.481c0.009 0.378 0.018 0.756 0.021 1.134 1.867 3.014 3.75 6.018 5.649 9.012-0-0.092-0.004-0.236-0.009-0.413v-0.029c-0.023-0.844-0.064-2.378 0.152-2.604 0.006-0.006 0.012-0.012 0.018-0.017l0.016-0.013 0.016-0.013 0.19 0.083c0.146 0.667 0.111 1.707 0.080 2.633l-0.001 0.014-0.002 0.057c-0.013 0.386-0.024 0.75-0.021 1.056 0.25 0.418 0.506 0.833 0.762 1.248 0.445 0.722 0.891 1.444 1.303 2.181l-2.062 3.312 0.005 2.122v1.634l3.42 0.002-0.007-14.105c-2.507-2.109-5.039-4.188-7.595-6.237l-0.079-0.065-0.072-0.061c-0.106-0.090-0.226-0.196-0.354-0.308zM10.020 0.89c-1.070 0.879-2.149 1.75-3.229 2.622-2.093 1.689-4.188 3.38-6.22 5.133l-0.013 14.093 3.41 0.005 0.007-1.885 0.009-1.904-2.031-3.33c0.667-1.13 1.342-2.255 2.027-3.374-0.001-0.059-0.002-0.138-0.005-0.233l-0.009-0.324c-0.031-1.046-0.088-2.966 0.111-3.276l0.132-0.025c0.125 0.095 0.174 0.153 0.195 0.316 0.077 0.579 0.045 1.318 0.016 2.006l-0.011 0.276-0.005 0.141c-0.006 0.154-0.010 0.303-0.011 0.443l5.706-9.106c0.002-0.117 0.010-0.252 0.019-0.396 0.024-0.392 0.051-0.845-0.047-1.139l-0.049-0.042zM7.831 21.555c-0.642-0.114-1.283-0.229-1.92-0.28l0.493 0.792c1.315 2.11 2.633 4.226 3.89 6.369 0.637-1.028 1.269-2.060 1.893-3.096 0.282-0.455 0.562-0.912 0.842-1.369 0.555-0.905 1.11-1.811 1.683-2.703-0.357 0.051-0.782 0.124-1.234 0.202-1.122 0.194-2.413 0.416-3.257 0.393-0.793-0.022-1.591-0.164-2.39-0.306zM4.395 21.046c0.001 0.705 0.014 1.41-0.005 2.114-0.344 0-0.689 0.001-1.033 0.002-0.816 0.002-1.633 0.005-2.448-0.006l9.194 7.505c-0.008-0.338-0.013-0.677-0.015-1.015-0.002-0.236-0.003-0.472-0.002-0.708-0.893-1.515-1.816-3.012-2.739-4.509l-0.018-0.029-0.003-0.005c-0.659-1.067-1.317-2.135-1.965-3.209l-0.966-0.14zM15.964 21.078l-0.036 0.003-0.669 0.103-4.729 7.695-0.018 1.775c0.305-0.248 0.61-0.496 0.915-0.743 0.383-0.309 0.767-0.617 1.151-0.924 2.393-1.92 4.766-3.864 7.121-5.832l-3.491 0.004c0.002-0.156 0.009-0.318 0.015-0.484l0.001-0.014c0.021-0.515 0.044-1.059-0.059-1.528-0.092-0.069-0.104-0.067-0.174-0.059l-0.027 0.003zM3.982 17.978c0.002-0.136 0.005-0.32 0.009-0.538 0.026-1.358 0.076-4.016-0.093-4.273-0.080 0.138-0.161 0.275-0.243 0.413l-0.248 0.414c-0.324 0.541-0.648 1.082-0.943 1.636 0.104 0.172 0.21 0.343 0.316 0.515 0.239 0.385 0.479 0.772 0.694 1.167l0.505 0.826 0.001-0.158zM15.745 20.611c0.198-0.024 0.3-0.056 0.55-0.148 0.046-0.208 0.065-0.554 0.047-0.809-0.2 0.246-0.355 0.524-0.509 0.801l-0.088 0.157zM4.42 19.741c-0.018 0.254 0 0.514 0.046 0.809 0.307 0.097 0.363 0.121 0.421 0.132 0.030 0.006 0.062 0.008 0.13 0.017-0.185-0.327-0.359-0.664-0.597-0.957z"></path>
<path d="M15.143 10.618c-0.208-0.336-0.435-0.704-0.675-1.092 0.236 0.381 0.459 0.743 0.664 1.074l0.011 0.018z"></path>
<path d="M16.192 11.49c-0-0.095-0.004-0.246-0.009-0.431v0.009c0.005 0.181 0.009 0.328 0.009 0.422z"></path>
<path d="M4.407 11.028c-0.007 0.19-0.013 0.373-0.015 0.545 0.001-0.141 0.006-0.289 0.011-0.443 0.001-0.033 0.003-0.068 0.004-0.102zM3.979 12.249c-0.001-0.118-0.007-0.313-0.014-0.556l0.009 0.324c0.003 0.095 0.004 0.174 0.005 0.233z"></path>
<path d="M16.21 23.061c0.003-0.13 0.009-0.263 0.014-0.399l-0.001 0.014c-0.005 0.131-0.011 0.259-0.013 0.385z"></path>
<path d="M3.898 13.167c-0.096 0.166-0.194 0.332-0.293 0.497l0.050-0.085c0.082-0.137 0.163-0.275 0.243-0.413zM3.98 18.136c0-0.166 0.008-0.54 0.017-1.012-0.002 0.111-0.004 0.217-0.006 0.316-0.006 0.321-0.011 0.569-0.011 0.696z"></path>
<path d="M67.646 29.205v-0.97h0.985c0.338 0 0.627-0.043 0.869-0.13 0.241-0.077 0.444-0.217 0.608-0.42s0.304-0.483 0.42-0.84l2.578-8.283h1.057l-2.693 8.587c-0.154 0.492-0.367 0.888-0.637 1.187-0.27 0.309-0.594 0.531-0.97 0.666s-0.806 0.203-1.289 0.203h-0.927zM70.137 26.034v-0.912h1.376v0.912h-1.376zM70.007 26.034l-2.78-7.472h1.115l2.679 7.472h-1.014z"></path>
<path d="M62.377 26.222v-7.66h0.869v3.2h-0.087c0-1.12 0.246-1.945 0.739-2.476 0.492-0.541 1.265-0.811 2.317-0.811h0.246v0.985h-0.449c-0.83 0-1.463 0.217-1.897 0.652-0.434 0.425-0.652 1.052-0.652 1.882v4.228h-1.086z"></path>
<path d="M58.621 26.222v-10.571h1.086v10.571h-1.086zM57.506 16.535v-0.883h2.201v0.883h-2.201z"></path>
<path d="M53.069 26.468c-0.657 0-1.226-0.111-1.709-0.333-0.483-0.232-0.878-0.536-1.187-0.912-0.309-0.386-0.541-0.816-0.695-1.289-0.145-0.473-0.217-0.961-0.217-1.463v-0.203c0-0.492 0.072-0.975 0.217-1.448 0.154-0.473 0.386-0.898 0.695-1.274s0.695-0.676 1.159-0.898c0.473-0.232 1.023-0.348 1.651-0.348 0.801 0 1.467 0.179 1.998 0.536 0.541 0.357 0.946 0.816 1.216 1.376 0.27 0.55 0.405 1.144 0.405 1.781v0.565h-6.849v-0.84h6.096l-0.275 0.42c0-0.57-0.101-1.067-0.304-1.492-0.193-0.434-0.483-0.772-0.869-1.014-0.376-0.251-0.85-0.377-1.419-0.377-0.599 0-1.096 0.14-1.492 0.42s-0.695 0.652-0.898 1.115c-0.193 0.463-0.29 0.989-0.29 1.578 0 0.579 0.097 1.11 0.29 1.593 0.203 0.473 0.507 0.85 0.912 1.13 0.415 0.28 0.936 0.42 1.564 0.42 0.666 0 1.207-0.15 1.622-0.449 0.415-0.309 0.671-0.671 0.767-1.086h1.014c-0.097 0.512-0.299 0.956-0.608 1.332-0.309 0.367-0.7 0.652-1.173 0.854s-1.014 0.304-1.622 0.304z"></path>
<path d="M33.337 27.088c-0.656 0-1.226-0.111-1.709-0.333-0.483-0.232-0.879-0.536-1.187-0.912-0.309-0.386-0.541-0.816-0.695-1.289-0.145-0.473-0.217-0.961-0.217-1.463v-0.203c0-0.492 0.072-0.975 0.217-1.448 0.154-0.473 0.386-0.898 0.695-1.274s0.695-0.676 1.158-0.898c0.473-0.232 1.023-0.348 1.651-0.348 0.801 0 1.467 0.179 1.998 0.536 0.541 0.357 0.946 0.816 1.216 1.376 0.27 0.55 0.406 1.144 0.406 1.781v0.565h-6.849v-0.84h6.096l-0.275 0.42c0-0.57-0.101-1.067-0.304-1.491-0.193-0.434-0.483-0.772-0.869-1.014-0.377-0.251-0.85-0.377-1.419-0.377-0.599 0-1.096 0.14-1.491 0.42s-0.695 0.652-0.898 1.115c-0.193 0.463-0.29 0.99-0.29 1.578 0 0.579 0.096 1.11 0.29 1.593 0.203 0.473 0.507 0.85 0.912 1.13 0.415 0.28 0.936 0.42 1.564 0.42 0.666 0 1.207-0.15 1.622-0.449 0.415-0.309 0.671-0.671 0.767-1.086h1.014c-0.097 0.512-0.299 0.956-0.608 1.332-0.309 0.367-0.7 0.652-1.173 0.854s-1.014 0.304-1.622 0.304z"></path>
<path d="M24.393 29.781v-0.97h0.869c0.376 0 0.661-0.111 0.854-0.333 0.203-0.212 0.304-0.521 0.304-0.927v-8.37h1.043v8.167c0 0.599-0.082 1.076-0.246 1.434-0.154 0.357-0.406 0.613-0.753 0.767s-0.811 0.232-1.39 0.232h-0.681zM25.175 20.050v-0.869h2.288v0.869h-2.288zM26.623 17.632c-0.261 0-0.459-0.068-0.594-0.203-0.125-0.145-0.188-0.323-0.188-0.536s0.063-0.386 0.188-0.521c0.135-0.145 0.333-0.217 0.594-0.217s0.454 0.072 0.579 0.217c0.126 0.135 0.188 0.309 0.188 0.521s-0.063 0.391-0.188 0.536c-0.125 0.135-0.319 0.203-0.579 0.203z"></path>
<path d="M96.628 14.75c-0.656 0-1.226-0.111-1.709-0.333-0.483-0.232-0.879-0.536-1.188-0.912-0.309-0.386-0.541-0.816-0.695-1.289-0.145-0.473-0.217-0.961-0.217-1.463v-0.203c0-0.492 0.072-0.975 0.217-1.448 0.154-0.473 0.386-0.898 0.695-1.274s0.695-0.676 1.159-0.898c0.473-0.232 1.023-0.348 1.651-0.348 0.801 0 1.468 0.179 1.998 0.536 0.541 0.357 0.946 0.816 1.217 1.376 0.271 0.55 0.405 1.144 0.405 1.781v0.565h-6.849v-0.84h6.096l-0.274 0.42c0-0.569-0.102-1.067-0.305-1.492-0.193-0.434-0.483-0.772-0.869-1.014-0.376-0.251-0.849-0.377-1.419-0.377-0.599 0-1.096 0.14-1.492 0.42s-0.695 0.652-0.898 1.115c-0.193 0.463-0.29 0.99-0.29 1.578 0 0.579 0.097 1.11 0.29 1.593 0.203 0.473 0.507 0.85 0.912 1.13 0.415 0.28 0.936 0.42 1.564 0.42 0.666 0 1.207-0.15 1.622-0.449 0.415-0.309 0.671-0.671 0.767-1.086h1.014c-0.097 0.512-0.3 0.956-0.609 1.332-0.308 0.367-0.699 0.652-1.172 0.854s-1.014 0.304-1.622 0.304z"></path>
<path d="M86.816 14.75c-0.56 0-1.072-0.101-1.535-0.304-0.454-0.212-0.85-0.502-1.187-0.869-0.328-0.377-0.584-0.801-0.767-1.274-0.174-0.483-0.261-0.994-0.261-1.535v-0.203c0-0.521 0.087-1.019 0.261-1.492 0.174-0.483 0.42-0.907 0.739-1.274 0.328-0.377 0.719-0.671 1.173-0.883 0.463-0.222 0.98-0.333 1.549-0.333 0.647 0 1.216 0.14 1.709 0.42s0.888 0.685 1.188 1.216c0.299 0.521 0.459 1.163 0.478 1.926l-0.478-0.898v-5.314h1.086v10.571h-0.869v-3.403h0.348c-0.019 0.801-0.188 1.477-0.507 2.027-0.309 0.541-0.719 0.946-1.231 1.216-0.502 0.27-1.067 0.405-1.694 0.405zM86.961 13.794c0.521 0 0.989-0.116 1.405-0.348 0.425-0.232 0.758-0.56 0.999-0.985 0.241-0.434 0.362-0.932 0.362-1.492v-0.695c0-0.541-0.121-1.014-0.362-1.419-0.241-0.415-0.574-0.739-0.999-0.97-0.415-0.232-0.888-0.348-1.419-0.348-0.57 0-1.067 0.14-1.492 0.42-0.415 0.27-0.739 0.642-0.97 1.115-0.222 0.473-0.333 1.004-0.333 1.593 0 0.608 0.116 1.149 0.348 1.622s0.56 0.845 0.985 1.115c0.425 0.261 0.917 0.391 1.477 0.391z"></path>
<path d="M80.236 14.504v-2.302h-0.174v-2.722c0-0.57-0.15-1.004-0.449-1.303-0.299-0.309-0.763-0.463-1.39-0.463-0.29 0-0.584 0.005-0.883 0.014-0.29 0.010-0.57 0.024-0.84 0.043-0.261 0.010-0.492 0.024-0.695 0.043v-0.956c0.212-0.019 0.43-0.039 0.652-0.058s0.449-0.029 0.681-0.029c0.241-0.010 0.473-0.014 0.695-0.014 0.782 0 1.409 0.097 1.882 0.29 0.483 0.193 0.835 0.497 1.057 0.912 0.222 0.405 0.333 0.946 0.333 1.622v4.923h-0.869zM77.644 14.707c-0.541 0-1.018-0.097-1.434-0.29s-0.739-0.473-0.97-0.84c-0.222-0.367-0.333-0.811-0.333-1.332 0-0.512 0.116-0.946 0.348-1.303 0.241-0.357 0.584-0.627 1.028-0.811 0.454-0.193 0.999-0.29 1.636-0.29h2.244v0.825h-2.317c-0.608 0-1.076 0.15-1.405 0.449-0.319 0.29-0.478 0.671-0.478 1.144 0 0.483 0.169 0.869 0.507 1.158 0.338 0.28 0.796 0.42 1.376 0.42 0.357 0 0.7-0.063 1.028-0.188 0.328-0.135 0.603-0.357 0.825-0.666 0.222-0.319 0.343-0.753 0.362-1.303l0.319 0.449c-0.039 0.569-0.174 1.047-0.405 1.434-0.232 0.376-0.545 0.661-0.941 0.854s-0.859 0.29-1.39 0.29z"></path>
<path d="M61.789 14.504v-7.675h0.869v3.229h-0.174c0-0.705 0.097-1.313 0.29-1.825 0.203-0.512 0.502-0.907 0.898-1.187 0.396-0.29 0.898-0.434 1.506-0.434h0.043c0.608 0 1.11 0.14 1.506 0.42s0.69 0.676 0.883 1.187c0.193 0.512 0.29 1.125 0.29 1.839h-0.348c0-0.705 0.097-1.313 0.29-1.825 0.203-0.512 0.502-0.907 0.898-1.187 0.406-0.29 0.912-0.434 1.52-0.434h0.043c0.608 0 1.11 0.14 1.506 0.42 0.405 0.28 0.705 0.676 0.898 1.187 0.203 0.512 0.304 1.125 0.304 1.839v4.446h-1.086v-4.692c0-0.676-0.164-1.212-0.492-1.607s-0.801-0.594-1.419-0.594c-0.637 0-1.144 0.208-1.52 0.623-0.367 0.405-0.55 0.956-0.55 1.651v4.619h-1.086v-4.692c0-0.676-0.164-1.212-0.492-1.607s-0.801-0.594-1.419-0.594c-0.637 0-1.144 0.208-1.52 0.623-0.367 0.405-0.55 0.956-0.55 1.651v4.619h-1.086z"></path>
<path d="M55.178 14.75c-0.56 0-1.072-0.101-1.535-0.304-0.454-0.212-0.85-0.502-1.188-0.869-0.328-0.377-0.584-0.801-0.767-1.274-0.174-0.483-0.261-0.994-0.261-1.535v-0.203c0-0.521 0.087-1.019 0.261-1.492 0.174-0.483 0.42-0.907 0.739-1.274 0.328-0.377 0.719-0.671 1.173-0.883 0.463-0.222 0.98-0.333 1.549-0.333 0.647 0 1.216 0.14 1.709 0.42s0.888 0.685 1.187 1.216c0.299 0.521 0.459 1.163 0.478 1.926l-0.478-0.898v-5.314h1.086v10.571h-0.869v-3.403h0.348c-0.019 0.801-0.188 1.477-0.507 2.027-0.309 0.541-0.719 0.946-1.231 1.216-0.502 0.27-1.067 0.405-1.694 0.405zM55.322 13.794c0.521 0 0.99-0.116 1.405-0.348 0.425-0.232 0.758-0.56 0.999-0.985 0.241-0.434 0.362-0.932 0.362-1.492v-0.695c0-0.541-0.121-1.014-0.362-1.419-0.241-0.415-0.574-0.739-0.999-0.97-0.415-0.232-0.888-0.348-1.419-0.348-0.57 0-1.067 0.14-1.492 0.42-0.415 0.27-0.739 0.642-0.97 1.115-0.222 0.473-0.333 1.004-0.333 1.593 0 0.608 0.116 1.149 0.348 1.622s0.56 0.845 0.985 1.115c0.425 0.261 0.917 0.391 1.477 0.391z"></path>
<path d="M42.988 14.504v-7.66h0.869v3.215h-0.174c0-0.714 0.106-1.327 0.319-1.839s0.531-0.907 0.956-1.187c0.425-0.28 0.961-0.42 1.607-0.42h0.043c0.965 0 1.685 0.304 2.158 0.912 0.473 0.599 0.71 1.443 0.71 2.534v4.446h-1.072v-4.677c0-0.666-0.183-1.202-0.55-1.607s-0.879-0.608-1.535-0.608c-0.676 0-1.221 0.212-1.636 0.637-0.406 0.415-0.608 0.965-0.608 1.651v4.605h-1.086z"></path>
<path d="M39.551 14.504v-2.302h-0.174v-2.722c0-0.57-0.15-1.004-0.449-1.303-0.299-0.309-0.763-0.463-1.39-0.463-0.29 0-0.584 0.005-0.883 0.014-0.29 0.010-0.57 0.024-0.84 0.043-0.261 0.010-0.492 0.024-0.695 0.043v-0.956c0.212-0.019 0.43-0.039 0.652-0.058s0.449-0.029 0.681-0.029c0.241-0.010 0.473-0.014 0.695-0.014 0.782 0 1.41 0.097 1.883 0.29 0.483 0.193 0.835 0.497 1.057 0.912 0.222 0.405 0.333 0.946 0.333 1.622v4.923h-0.869zM36.958 14.707c-0.541 0-1.018-0.097-1.434-0.29s-0.739-0.473-0.97-0.84c-0.222-0.367-0.333-0.811-0.333-1.332 0-0.512 0.116-0.946 0.348-1.303 0.241-0.357 0.584-0.627 1.028-0.811 0.454-0.193 0.999-0.29 1.636-0.29h2.245v0.825h-2.317c-0.608 0-1.076 0.15-1.405 0.449-0.319 0.29-0.478 0.671-0.478 1.144 0 0.483 0.169 0.869 0.507 1.158 0.338 0.28 0.796 0.42 1.376 0.42 0.357 0 0.7-0.063 1.028-0.188 0.328-0.135 0.603-0.357 0.825-0.666 0.222-0.319 0.343-0.753 0.362-1.303l0.319 0.449c-0.039 0.569-0.174 1.047-0.405 1.434-0.232 0.376-0.545 0.661-0.941 0.854s-0.859 0.29-1.39 0.29z"></path>
<path d="M25.841 14.504v-10.571h1.086v5.981l-0.319 0.246c0-0.714 0.101-1.337 0.304-1.868 0.212-0.531 0.526-0.941 0.941-1.231 0.425-0.299 0.956-0.449 1.593-0.449h0.058c0.927 0 1.627 0.304 2.1 0.912 0.483 0.608 0.724 1.453 0.724 2.534v4.446h-1.072v-4.677c0-0.685-0.188-1.226-0.565-1.622s-0.883-0.594-1.52-0.594c-0.685 0-1.231 0.222-1.636 0.666-0.405 0.434-0.608 1.009-0.608 1.723v4.503h-1.086z"></path>
<path d="M40.918 25.995l1.519-6.885h1.412l1.761 6.885h-0.874l-1.761-6.844h0.323l-1.533 6.844h-0.847zM40.34 25.995v-0.82h1.224v0.82h-1.224zM40.098 25.995l-2.057-7.113h0.968l2.030 7.113h-0.941zM44.966 25.995v-0.82h1.197v0.82h-1.197zM45.49 25.995l1.775-7.113h0.928l-1.815 7.113h-0.887z"></path>
</svg>
