<!-- Generated by IcoMoon.io -->
<svg version="1.1" xmlns="http://www.w3.org/2000/svg" width="32" height="32" viewBox="0 0 32 32">
<path fill="#fff" d="M0 0h32v32h-32v-32z"></path>
<path fill="#000" d="M23.901 8.994l0.015 0.013 0.829 0.69 0.001 12.778c-2.929 2.418-5.876 4.814-8.84 7.188-0.188-0.019-5.071-4.035-7.552-6.075l-0.069-0.057c-0.636-0.523-1.103-0.907-1.276-1.047l-0.009-12.78 8.831-7.236c0.288 0.041 5.801 4.636 8.069 6.526zM20.087 11.604l-0.010-0.016-0.002-0.003-0.014-0.022c-1.451-2.348-3.994-6.462-4.211-6.618l-5.124 8.165 0.011 5.668 1.030 1.691c0.451 0.064 0.906 0.138 1.363 0.212 0.926 0.15 1.858 0.3 2.778 0.377l1.227-0.184c0.947-0.143 1.894-0.286 2.843-0.413l1.034-1.605-0-5.76c-0.123-0.193-0.468-0.751-0.924-1.49zM21.394 13.78c-0.035 1.045-0.026 2.096-0.017 3.145 0.004 0.427 0.007 0.853 0.008 1.278l0.546-0.885c0.158-0.251 0.315-0.503 0.471-0.755l0.179-0.29 0.172-0.281c-0.043-0.071-0.086-0.144-0.128-0.218-0.086-0.149-0.172-0.301-0.258-0.456-0.3-0.536-0.61-1.088-0.971-1.539zM17.306 4.063c-0.424-0.372-0.944-0.829-1.256-0.962l0.009 0.419c0.008 0.329 0.015 0.659 0.018 0.988 1.628 2.627 3.269 5.245 4.924 7.856-0-0.080-0.004-0.206-0.008-0.36v-0.025c-0.020-0.735-0.055-2.073 0.132-2.27 0.005-0.005 0.010-0.010 0.016-0.015l0.028-0.023 0.165 0.072c0.128 0.581 0.097 1.488 0.070 2.295l-0 0.012-0.002 0.049c-0.011 0.337-0.021 0.654-0.018 0.92 0.218 0.364 0.441 0.726 0.664 1.088 0.388 0.629 0.776 1.258 1.136 1.901l-1.798 2.887 0.004 1.85v1.425l2.982 0.002-0.006-12.295c-2.185-1.838-4.392-3.651-6.62-5.436l-0.069-0.056-0.063-0.053c-0.093-0.079-0.197-0.171-0.309-0.269zM15.621 3.125c-0.932 0.766-1.873 1.526-2.815 2.285-1.825 1.473-3.651 2.947-5.422 4.474l-0.011 12.284 2.973 0.004 0.006-1.643 0.007-1.66-1.77-2.903c0.581-0.985 1.17-1.965 1.767-2.941-0.001-0.052-0.002-0.12-0.004-0.203l-0.008-0.282c-0.027-0.912-0.077-2.586 0.097-2.856l0.115-0.022c0.109 0.083 0.152 0.134 0.17 0.275 0.067 0.504 0.040 1.149 0.014 1.748l-0.010 0.24-0.005 0.123c-0.005 0.134-0.008 0.264-0.010 0.386l4.973-7.937c0.001-0.102 0.008-0.22 0.016-0.346 0.021-0.342 0.045-0.737-0.041-0.993l-0.043-0.037zM13.713 21.138c-0.559-0.1-1.118-0.199-1.674-0.244l0.43 0.69c1.146 1.84 2.295 3.684 3.391 5.551 0.556-0.896 1.106-1.796 1.65-2.699 0.246-0.397 0.49-0.795 0.734-1.194 0.483-0.789 0.967-1.579 1.467-2.357-0.311 0.044-0.682 0.108-1.076 0.176-0.978 0.169-2.104 0.363-2.839 0.343-0.691-0.019-1.387-0.143-2.083-0.267zM10.718 20.695c0.001 0.614 0.012 1.229-0.004 1.843-0.3 0-0.601 0.001-0.901 0.002-0.711 0.002-1.423 0.004-2.134-0.006l8.014 6.541c-0.007-0.295-0.011-0.59-0.013-0.885-0.002-0.206-0.002-0.412-0.002-0.617-0.778-1.321-1.583-2.626-2.388-3.93l-0.015-0.025-0.002-0.004c-0.574-0.93-1.148-1.861-1.713-2.797l-0.842-0.122zM20.803 20.722l-0.031 0.003-0.583 0.090-4.122 6.708-0.016 1.547c0.265-0.216 0.531-0.432 0.798-0.647 0.334-0.269 0.668-0.538 1.003-0.805 2.086-1.674 4.155-3.368 6.207-5.084l-3.043 0.003c0.002-0.136 0.007-0.278 0.013-0.422l0.001-0.012c0.019-0.449 0.038-0.923-0.051-1.332-0.080-0.060-0.090-0.059-0.152-0.051l-0.024 0.003zM10.358 18.020c0.002-0.118 0.005-0.279 0.008-0.469 0.023-1.184 0.066-3.501-0.081-3.725-0.070 0.12-0.141 0.24-0.212 0.36l-0.216 0.361c-0.282 0.471-0.565 0.943-0.822 1.426 0.091 0.15 0.183 0.299 0.276 0.449 0.208 0.336 0.417 0.673 0.605 1.017l0.44 0.72 0.001-0.138zM20.611 20.316c0.172-0.021 0.261-0.049 0.48-0.129 0.040-0.181 0.056-0.483 0.041-0.705-0.174 0.215-0.309 0.457-0.444 0.698l-0.076 0.136zM10.74 19.557c-0.016 0.222 0 0.448 0.040 0.705 0.268 0.085 0.316 0.105 0.367 0.115 0.027 0.005 0.054 0.007 0.113 0.014-0.161-0.285-0.313-0.579-0.52-0.834z"></path>
<path fill="#000" d="M20.087 11.604c-0.181-0.293-0.379-0.614-0.588-0.952 0.205 0.332 0.4 0.648 0.579 0.936l0.010 0.016z"></path>
<path fill="#000" d="M21.001 12.365c-0-0.083-0.004-0.215-0.008-0.376v0.008c0.004 0.158 0.008 0.286 0.008 0.368z"></path>
<path fill="#000" d="M10.728 11.962c-0.006 0.166-0.011 0.325-0.013 0.475 0.001-0.123 0.005-0.252 0.010-0.386 0.001-0.029 0.002-0.059 0.003-0.088zM10.355 13.026c-0.001-0.102-0.006-0.273-0.012-0.485l0.008 0.282c0.002 0.083 0.004 0.152 0.004 0.203z"></path>
<path fill="#000" d="M21.018 22.451c0.003-0.113 0.008-0.23 0.012-0.348l-0.001 0.012c-0.005 0.114-0.009 0.226-0.012 0.335z"></path>
<path fill="#000" d="M10.285 13.826c-0.084 0.145-0.169 0.289-0.256 0.434l0.044-0.074c0.071-0.12 0.142-0.24 0.212-0.36zM10.357 18.158c0-0.145 0.007-0.471 0.015-0.882-0.002 0.097-0.004 0.189-0.005 0.275-0.005 0.28-0.009 0.496-0.009 0.607z"></path>
</svg>
